<svg width="99" height="39" viewBox="0 0 99 39" fill="none" xmlns="http://www.w3.org/2000/svg">
<path d="M17.6157 20.5476L17.5797 21.5469C17.5917 21.5473 17.6037 21.5476 17.6157 21.5476L17.6157 20.5476ZM23.7014 21.5617L23.7776 22.5588L23.7014 21.5617ZM36.7029 1.27638L36.6994 2.27638H36.7029L36.7029 1.27638ZM40.8523 10.7428L39.8712 10.9366C39.8745 10.9532 39.8782 10.9697 39.8823 10.9861L40.8523 10.7428ZM54.6836 31.3661L54.7598 30.369C54.7213 30.3661 54.6827 30.3654 54.6442 30.3669L54.6836 31.3661ZM62.7057 23.9282L61.8119 23.4799C61.8071 23.4894 61.8025 23.4989 61.7981 23.5084L62.7057 23.9282ZM1.93921 38.6197C2.87372 36.0635 5.09719 31.6566 8.00046 27.9399C9.45038 26.0837 11.0414 24.4366 12.6923 23.277C14.3456 22.1157 15.9911 21.4898 17.5797 21.5469L17.6516 19.5482C15.4781 19.4701 13.4076 20.3305 11.5427 21.6404C9.67531 22.9521 7.94574 24.761 6.42432 26.7087C3.38491 30.5998 1.06267 35.1925 0.0607949 37.933L1.93921 38.6197ZM17.6157 21.5476C18.2369 21.5475 19.0712 21.7873 20.2246 22.0825C21.2824 22.3532 22.5609 22.6517 23.7776 22.5588L23.6253 20.5646C22.7784 20.6293 21.7978 20.4207 20.7205 20.1449C19.7388 19.8937 18.5619 19.5475 17.6156 19.5476L17.6157 21.5476ZM23.7776 22.5588C24.8764 22.4748 26.3446 21.6951 27.7763 20.0448C29.232 18.3669 30.72 15.7173 31.8562 11.6906L29.9313 11.1475C28.8544 14.9644 27.484 17.3297 26.2656 18.7341C25.0233 20.1661 24.0019 20.5358 23.6253 20.5646L23.7776 22.5588ZM31.8562 11.6906C32.9508 7.81076 34.0116 5.3806 34.9316 3.94362C35.8898 2.44702 36.527 2.27576 36.6994 2.27637L36.7064 0.276382C35.4421 0.271932 34.2813 1.25017 33.2473 2.86525C32.1751 4.53994 31.0497 7.18364 29.9313 11.1475L31.8562 11.6906ZM36.7029 2.27638C36.5942 2.27638 36.6369 2.22748 36.8292 2.39892C37.0197 2.56875 37.3 2.9076 37.6347 3.53749C38.3049 4.79853 39.1048 7.05575 39.8712 10.9366L41.8333 10.5491C41.0507 6.58617 40.204 4.11015 39.4008 2.59889C38.9989 1.84263 38.5858 1.28557 38.1601 0.906033C37.7361 0.528099 37.2397 0.276369 36.7029 0.276375L36.7029 2.27638ZM39.8823 10.9861C40.7718 14.5335 42.5411 19.8445 44.9767 24.2592C46.1933 26.4643 47.604 28.4974 49.1943 29.9734C50.7836 31.4483 52.6432 32.4474 54.723 32.3654L54.6442 30.3669C53.2938 30.4202 51.9285 29.7823 50.5549 28.5075C49.1825 27.2337 47.8926 25.4041 46.7279 23.293C44.4009 19.0752 42.6847 13.9393 41.8222 10.4996L39.8823 10.9861ZM54.6074 32.3632C56.6664 32.5205 60.6441 30.7685 63.6134 24.3479L61.7981 23.5084C59.0136 29.5295 55.6515 30.4372 54.7598 30.369L54.6074 32.3632ZM63.5996 24.3765C65.366 20.8542 67.7605 15.8568 70.5653 11.7272C71.9666 9.66411 73.4387 7.86652 74.9451 6.59378C76.4571 5.31634 77.9131 4.6429 79.3033 4.6429V2.6429C77.253 2.6429 75.352 3.63173 73.6544 5.06604C71.9511 6.50505 70.3608 8.46869 68.9109 10.6035C66.0132 14.8698 63.5494 20.0151 61.8119 23.4799L63.5996 24.3765ZM79.3033 4.6429C82.2922 4.6429 84.421 6.60968 87.2086 9.0405C89.9067 11.3933 93.0914 14.0145 97.9547 14.2351L98.0453 12.2372C93.9318 12.0506 91.2087 9.87511 88.523 7.53312C85.9267 5.26913 83.1956 2.6429 79.3033 2.6429V4.6429Z" fill="#8C50FF"/>
</svg>
