<?xml version="1.0" encoding="UTF-8" standalone="no"?>
<!DOCTYPE svg PUBLIC "-//W3C//DTD SVG 1.1//EN" "http://www.w3.org/Graphics/SVG/1.1/DTD/svg11.dtd">
<svg version="1.1" xmlns="http://www.w3.org/2000/svg" xmlns:xlink="http://www.w3.org/1999/xlink" preserveAspectRatio="xMidYMid meet" viewBox="0 0 640 640" width="640" height="640"><defs><path d="M503.9 269.3C500.9 274.6 494.5 276.8 488.8 274.7C477 270.3 466.2 264 456.7 256.1C452.1 252.3 450.9 245.6 453.9 240.4C454.72 238.97 461.28 227.53 462.1 226.1C455.2 218.1 449.8 208.8 446.2 198.7C444.55 198.7 431.35 198.7 429.7 198.7C423.7 198.7 418.5 194.4 417.5 188.4C415.5 176.4 415.4 163.8 417.5 151.3C418.5 145.3 423.7 140.9 429.7 140.9C431.35 140.9 444.55 140.9 446.2 140.9C449.8 130.8 455.2 121.5 462.1 113.5C461.28 112.07 454.72 100.63 453.9 99.2C450.9 94 452 87.3 456.7 83.5C466.2 75.6 477.1 69.3 488.8 64.9C494.5 62.8 500.9 65 503.9 70.3C504.72 71.73 511.28 83.17 512.1 84.6C522.6 82.7 533.3 82.7 543.8 84.6C544.62 83.17 551.18 71.73 552 70.3C555 65 561.4 62.8 567.1 64.9C578.9 69.3 589.7 75.6 599.2 83.5C603.8 87.3 605 94 602 99.2C601.18 100.63 594.62 112.07 593.8 113.5C600.7 121.5 606.1 130.8 609.7 140.9C611.35 140.9 624.55 140.9 626.2 140.9C632.2 140.9 637.4 145.2 638.4 151.2C640.4 163.2 640.5 175.8 638.4 188.3C637.4 194.3 632.2 198.7 626.2 198.7C624.55 198.7 611.35 198.7 609.7 198.7C606.1 208.8 600.7 218.1 593.8 226.1C594.62 227.53 601.18 238.97 602 240.4C605 245.6 603.9 252.3 599.2 256.1C589.7 264 578.8 270.3 567.1 274.7C561.4 276.8 555 274.6 552 269.3C551.18 267.87 544.62 256.43 543.8 255C533.4 256.9 522.6 256.9 512.1 255C510.46 257.86 504.72 267.87 503.9 269.3ZM554.4 143.4C515.9 113.7 472 157.7 501.6 196.2C540.1 225.8 584 181.9 554.4 143.4ZM420 366.9C430.1 372.7 434.5 385 430.5 396C421.6 420.2 404.1 442.4 387.9 461.8C380.5 470.7 367.7 472.9 357.6 467.1C354.69 465.42 331.41 451.98 328.5 450.3C312.5 464 293.9 474.9 273.6 482C273.6 485.36 273.6 512.24 273.6 515.6C273.6 527.2 265.3 537.2 253.9 539.2C229.3 543.4 203.5 543.6 178 539.2C166.5 537.2 158 527.3 158 515.6C158 512.24 158 485.36 158 482C137.7 474.8 119.1 464 103.1 450.3C100.19 451.97 76.91 465.33 74 467C64 472.8 51.1 470.6 43.7 461.7C27.5 442.3 10.4 420.1 1.5 396C-2.5 385.1 1.9 372.8 12 366.9C15.33 365.22 41.97 351.78 45.3 350.1C41.4 329.2 41.4 307.7 45.3 286.7C41.97 285.01 15.33 271.49 12 269.8C1.9 264 -2.6 251.7 1.5 240.8C10.4 216.6 27.5 194.4 43.7 175C51.1 166.1 63.9 163.9 74 169.7C76.91 171.38 100.19 184.82 103.1 186.5C119.1 172.8 137.7 161.9 158 154.8C158 151.43 158 124.47 158 121.1C158 109.6 166.2 99.6 177.6 97.6C202.2 93.4 228.1 93.2 253.6 97.5C265.1 99.5 273.6 109.4 273.6 121.1C273.6 124.46 273.6 151.34 273.6 154.7C293.9 161.9 312.5 172.7 328.5 186.4C331.41 184.72 354.69 171.28 357.6 169.6C367.6 163.8 380.5 166 387.9 174.9C404.1 194.3 421.1 216.5 430 240.7C434 251.6 430.1 263.9 420 269.8C416.63 271.48 389.67 284.92 386.3 286.6C390.2 307.6 390.2 329.1 386.3 350.1C393.04 353.46 416.63 365.22 420 366.9ZM163 265.5C103.8 342.5 191.7 430.4 268.7 371.2C327.9 294.2 240 206.3 163 265.5ZM503.9 568.2C500.9 573.5 494.5 575.7 488.8 573.6C477 569.2 466.2 562.9 456.7 555C452.1 551.2 450.9 544.5 453.9 539.3C454.72 537.87 461.28 526.43 462.1 525C455.2 517 449.8 507.7 446.2 497.6C444.55 497.6 431.35 497.6 429.7 497.6C423.7 497.6 418.5 493.3 417.5 487.3C415.5 475.3 415.4 462.7 417.5 450.2C418.5 444.2 423.7 439.8 429.7 439.8C431.35 439.8 444.55 439.8 446.2 439.8C449.8 429.7 455.2 420.4 462.1 412.4C461.28 410.97 454.72 399.53 453.9 398.1C450.9 392.9 452 386.2 456.7 382.4C466.2 374.5 477.1 368.2 488.8 363.8C494.5 361.7 500.9 363.9 503.9 369.2C504.72 370.63 511.28 382.07 512.1 383.5C522.6 381.6 533.3 381.6 543.8 383.5C544.62 382.07 551.18 370.63 552 369.2C555 363.9 561.4 361.7 567.1 363.8C578.9 368.2 589.7 374.5 599.2 382.4C603.8 386.2 605 392.9 602 398.1C601.18 399.53 594.62 410.97 593.8 412.4C600.7 420.4 606.1 429.7 609.7 439.8C611.35 439.8 624.55 439.8 626.2 439.8C632.2 439.8 637.4 444.1 638.4 450.1C640.4 462.1 640.5 474.7 638.4 487.2C637.4 493.2 632.2 497.6 626.2 497.6C624.55 497.6 611.35 497.6 609.7 497.6C606.1 507.7 600.7 517 593.8 525C594.62 526.43 601.18 537.87 602 539.3C605 544.5 603.9 551.2 599.2 555C589.7 562.9 578.8 569.2 567.1 573.6C561.4 575.7 555 573.5 552 568.2C551.18 566.77 544.62 555.33 543.8 553.9C533.4 555.8 522.6 555.8 512.1 553.9C510.46 556.76 504.72 566.77 503.9 568.2ZM554.4 442.2C515.9 412.6 472 456.5 501.6 495C540.1 524.6 584 480.7 554.4 442.2Z" id="g2sJcOkH20"></path></defs><g><g><g><use xlink:href="#g2sJcOkH20" opacity="1" fill="#ffffff" fill-opacity="1"></use><g><use xlink:href="#g2sJcOkH20" opacity="1" fill-opacity="0" stroke="#000000" stroke-width="1" stroke-opacity="0"></use></g></g></g></g></svg>