<?xml version="1.0" encoding="UTF-8" standalone="no"?>
<!DOCTYPE svg PUBLIC "-//W3C//DTD SVG 1.1//EN" "http://www.w3.org/Graphics/SVG/1.1/DTD/svg11.dtd">
<svg version="1.1" xmlns="http://www.w3.org/2000/svg" xmlns:xlink="http://www.w3.org/1999/xlink" preserveAspectRatio="xMidYMid meet" viewBox="0 0 640 640" width="640" height="640"><defs><path d="M426.67 171C426.67 164 423.89 157.22 418.89 152.22C408.01 141.33 320.99 54.22 310.11 43.33C305.11 38.33 298.33 35.56 291.22 35.56C290.77 35.56 288.51 35.56 284.44 35.56L284.44 177.78L426.67 177.78C426.67 174.16 426.67 171.9 426.67 171ZM528.11 270.67C516.89 259.44 497.67 267.33 497.67 283.22C497.67 288.04 497.67 312.16 497.67 355.56L426.56 355.56L426.56 426.67L497.67 426.67C497.67 470.13 497.67 494.28 497.67 499.11C497.67 515 516.89 522.89 528.11 511.67C538.74 500.94 623.81 415.17 634.44 404.44C641.78 397.11 641.78 385.11 634.44 377.78C613.18 356.36 538.74 281.38 528.11 270.67ZM213.33 373.33C213.33 363.56 221.33 355.56 231.11 355.56C244.15 355.56 309.33 355.56 426.67 355.56L426.67 213.33C336 213.33 285.63 213.33 275.56 213.33C260.89 213.33 248.89 201.33 248.89 186.67C248.89 176.59 248.89 126.22 248.89 35.56C115.56 35.56 41.48 35.56 26.67 35.56C11.89 35.56 0 47.44 0 62.22C0 113.78 0 526.22 0 577.78C0 592.56 11.89 604.44 26.67 604.44C64 604.44 362.67 604.44 400 604.44C414.78 604.44 426.67 592.56 426.67 577.78C426.67 567.7 426.67 517.33 426.67 426.67C309.33 426.67 244.15 426.67 231.11 426.67C221.33 426.67 213.33 418.67 213.33 408.89C213.33 401.78 213.33 376.89 213.33 373.33Z" id="d7gIuIZVAI"></path></defs><g><g><g><use xlink:href="#d7gIuIZVAI" opacity="1" fill="#fbfbfb" fill-opacity="1"></use><g><use xlink:href="#d7gIuIZVAI" opacity="1" fill-opacity="0" stroke="#000000" stroke-width="1" stroke-opacity="0"></use></g></g></g></g></svg>