<?xml version="1.0" encoding="UTF-8" standalone="no"?>
<!DOCTYPE svg PUBLIC "-//W3C//DTD SVG 1.1//EN" "http://www.w3.org/Graphics/SVG/1.1/DTD/svg11.dtd">
<svg version="1.1" xmlns="http://www.w3.org/2000/svg" xmlns:xlink="http://www.w3.org/1999/xlink" preserveAspectRatio="xMidYMid meet" viewBox="0 0 640 640" width="640" height="640"><defs><path d="M411.25 551.25C392.5 570 360 556.88 360 530C360 522 360 482 360 410C258 410 201.33 410 190 410C173.38 410 160 396.63 160 380C160 368 160 272 160 260C160 243.38 173.38 230 190 230C201.33 230 258 230 360 230C360 158 360 118 360 110C360 83.25 392.38 70 411.25 88.75C432.25 109.75 600.25 277.75 621.25 298.75C632.88 310.5 632.88 329.5 621.25 341.25C579.25 383.25 432.25 530.25 411.25 551.25ZM240 495C240 486.75 233.25 480 225 480C214.5 480 130.5 480 120 480C97.88 480 80 462.13 80 440C80 416 80 224 80 200C80 177.88 97.88 160 120 160C130.5 160 214.5 160 225 160C233.25 160 240 153.25 240 145C240 140 240 100 240 95C240 86.75 233.25 80 225 80C214.5 80 130.5 80 120 80C53.75 80 0 133.75 0 200C0 224 0 416 0 440C0 506.25 53.75 560 120 560C130.5 560 214.5 560 225 560C233.25 560 240 553.25 240 545C240 535 240 500 240 495Z" id="h12vhFw2i"></path></defs><g><g><g><use xlink:href="#h12vhFw2i" opacity="1" fill="#ffffff" fill-opacity="1"></use><g><use xlink:href="#h12vhFw2i" opacity="1" fill-opacity="0" stroke="#000000" stroke-width="1" stroke-opacity="0"></use></g></g></g></g></svg>