<?xml version="1.0" encoding="UTF-8" standalone="no"?>
<!DOCTYPE svg PUBLIC "-//W3C//DTD SVG 1.1//EN" "http://www.w3.org/Graphics/SVG/1.1/DTD/svg11.dtd">
<svg version="1.1" xmlns="http://www.w3.org/2000/svg" xmlns:xlink="http://www.w3.org/1999/xlink" preserveAspectRatio="xMidYMid meet" viewBox="0 0 640 640" width="640" height="640"><defs><path d="M380 260C380 152 380 92 380 80C380 57.91 362.09 40 340 40C336 40 304 40 300 40C277.91 40 260 57.91 260 80C260 92 260 152 260 260C152 260 92 260 80 260C57.91 260 40 277.91 40 300C40 304 40 336 40 340C40 362.09 57.91 380 80 380C92 380 152 380 260 380C260 488 260 548 260 560C260 582.09 277.91 600 300 600C304 600 336 600 340 600C362.09 600 380 582.09 380 560C380 548 380 488 380 380C488 380 548 380 560 380C582.09 380 600 362.09 600 340C600 336 600 304 600 300C600 277.91 582.09 260 560 260C536 260 476 260 380 260Z" id="c3PlzNa6x"></path></defs><g><g><g><use xlink:href="#c3PlzNa6x" opacity="1" fill="#ffffff" fill-opacity="1"></use><g><use xlink:href="#c3PlzNa6x" opacity="1" fill-opacity="0" stroke="#000000" stroke-width="1" stroke-opacity="0"></use></g></g></g></g></svg>