<?xml version="1.0" encoding="UTF-8" standalone="no"?>
<!DOCTYPE svg PUBLIC "-//W3C//DTD SVG 1.1//EN" "http://www.w3.org/Graphics/SVG/1.1/DTD/svg11.dtd">
<svg version="1.1" xmlns="http://www.w3.org/2000/svg" xmlns:xlink="http://www.w3.org/1999/xlink" preserveAspectRatio="xMidYMid meet" viewBox="0 0 640 640" width="640" height="640"><defs><path d="M480 60C439.2 26.4 416.53 7.73 412 4C404.9 -1.38 395.1 -1.38 388 4C383.47 7.73 360.8 26.4 320 60C279.2 26.4 256.53 7.73 252 4C244.9 -1.38 235.1 -1.38 228 4C223.47 7.73 200.8 26.4 160 60C131.2 26.4 115.2 7.73 112 4C98.75 -5.87 80 3.5 80 20C80 80 80 560 80 620C80 636.5 98.75 645.88 112 636C115.2 632.27 131.2 613.6 160 580C200.8 613.6 223.47 632.27 228 636C235.1 641.38 244.9 641.38 252 636C256.53 632.27 279.2 613.6 320 580C360.8 613.6 383.47 632.27 388 636C395.1 641.38 404.9 641.38 412 636C416.53 632.27 439.2 613.6 480 580C508.8 613.6 524.8 632.27 528 636C541.13 645.88 560 636.5 560 620C560 560 560 80 560 20C560 3.5 541.25 -5.87 528 4C521.6 11.47 505.6 30.13 480 60ZM470 460C440 460 200 460 170 460C164.5 460 160 455.5 160 450C160 448 160 432 160 430C160 424.5 164.5 420 170 420C200 420 440 420 470 420C475.5 420 480 424.5 480 430C480 431.33 480 438 480 450C477 456.67 473.67 460 470 460ZM470 340C440 340 200 340 170 340C164.5 340 160 335.5 160 330C160 328 160 312 160 310C160 304.5 164.5 300 170 300C200 300 440 300 470 300C475.5 300 480 304.5 480 310C480 311.33 480 318 480 330C477 336.67 473.67 340 470 340ZM470 220C440 220 200 220 170 220C164.5 220 160 215.5 160 210C160 208 160 192 160 190C160 184.5 164.5 180 170 180C200 180 440 180 470 180C475.5 180 480 184.5 480 190C480 191.33 480 198 480 210C477 216.67 473.67 220 470 220Z" id="hf0qKb8hK"></path></defs><g><g><g><use xlink:href="#hf0qKb8hK" opacity="1" fill="#ffffff" fill-opacity="1"></use><g><use xlink:href="#hf0qKb8hK" opacity="1" fill-opacity="0" stroke="#000000" stroke-width="1" stroke-opacity="0"></use></g></g></g></g></svg>