<svg width="35" height="35" viewBox="0 0 35 35" fill="none" xmlns="http://www.w3.org/2000/svg">
<path d="M33.9062 26.25H10.9375V25.1562C10.9375 24.5547 10.4453 24.0625 9.84375 24.0625H7.65625C7.05469 24.0625 6.5625 24.5547 6.5625 25.1562V26.25H1.09375C0.492187 26.25 0 26.7422 0 27.3438V29.5312C0 30.1328 0.492187 30.625 1.09375 30.625H6.5625V31.7188C6.5625 32.3203 7.05469 32.8125 7.65625 32.8125H9.84375C10.4453 32.8125 10.9375 32.3203 10.9375 31.7188V30.625H33.9062C34.5078 30.625 35 30.1328 35 29.5312V27.3438C35 26.7422 34.5078 26.25 33.9062 26.25ZM33.9062 15.3125H28.4375V14.2188C28.4375 13.6172 27.9453 13.125 27.3438 13.125H25.1562C24.5547 13.125 24.0625 13.6172 24.0625 14.2188V15.3125H1.09375C0.492187 15.3125 0 15.8047 0 16.4062V18.5938C0 19.1953 0.492187 19.6875 1.09375 19.6875H24.0625V20.7812C24.0625 21.3828 24.5547 21.875 25.1562 21.875H27.3438C27.9453 21.875 28.4375 21.3828 28.4375 20.7812V19.6875H33.9062C34.5078 19.6875 35 19.1953 35 18.5938V16.4062C35 15.8047 34.5078 15.3125 33.9062 15.3125ZM33.9062 4.375H19.6875V3.28125C19.6875 2.67969 19.1953 2.1875 18.5938 2.1875H16.4062C15.8047 2.1875 15.3125 2.67969 15.3125 3.28125V4.375H1.09375C0.492187 4.375 0 4.86719 0 5.46875V7.65625C0 8.25781 0.492187 8.75 1.09375 8.75H15.3125V9.84375C15.3125 10.4453 15.8047 10.9375 16.4062 10.9375H18.5938C19.1953 10.9375 19.6875 10.4453 19.6875 9.84375V8.75H33.9062C34.5078 8.75 35 8.25781 35 7.65625V5.46875C35 4.86719 34.5078 4.375 33.9062 4.375Z" fill="#8C50FF"/>
</svg>
